<mxfile host="Electron" agent="Mozilla/5.0 (Windows NT 10.0; Win64; x64) AppleWebKit/537.36 (KHTML, like Gecko) draw.io/28.1.2 Chrome/138.0.7204.243 Electron/37.4.0 Safari/537.36" version="28.1.2">
  <diagram name="Page-1" id="lyle7bmtfYgLOaQkc8J7">
    <mxGraphModel dx="1625" dy="1009" grid="1" gridSize="10" guides="1" tooltips="1" connect="1" arrows="1" fold="1" page="1" pageScale="1" pageWidth="850" pageHeight="1100" math="0" shadow="0">
      <root>
        <mxCell id="0" />
        <mxCell id="1" parent="0" />
        <mxCell id="1oiTnXrNYfTl7XvEbWrJ-3" value="" style="endArrow=none;html=1;rounded=0;" edge="1" parent="1">
          <mxGeometry width="50" height="50" relative="1" as="geometry">
            <mxPoint x="-760" y="1120" as="sourcePoint" />
            <mxPoint x="-760" y="560" as="targetPoint" />
          </mxGeometry>
        </mxCell>
        <mxCell id="1oiTnXrNYfTl7XvEbWrJ-4" value="" style="endArrow=none;html=1;rounded=0;" edge="1" parent="1">
          <mxGeometry width="50" height="50" relative="1" as="geometry">
            <mxPoint x="-760" y="560" as="sourcePoint" />
            <mxPoint x="-200" y="560" as="targetPoint" />
          </mxGeometry>
        </mxCell>
        <mxCell id="1oiTnXrNYfTl7XvEbWrJ-5" value="" style="endArrow=none;html=1;rounded=0;" edge="1" parent="1">
          <mxGeometry width="50" height="50" relative="1" as="geometry">
            <mxPoint x="-760" y="600" as="sourcePoint" />
            <mxPoint x="-200" y="600" as="targetPoint" />
          </mxGeometry>
        </mxCell>
        <mxCell id="1oiTnXrNYfTl7XvEbWrJ-6" value="" style="endArrow=none;html=1;rounded=0;" edge="1" parent="1">
          <mxGeometry width="50" height="50" relative="1" as="geometry">
            <mxPoint x="-200" y="1120" as="sourcePoint" />
            <mxPoint x="-200" y="560" as="targetPoint" />
          </mxGeometry>
        </mxCell>
        <mxCell id="1oiTnXrNYfTl7XvEbWrJ-7" value="" style="endArrow=none;html=1;rounded=0;" edge="1" parent="1">
          <mxGeometry width="50" height="50" relative="1" as="geometry">
            <mxPoint x="-480" y="1120" as="sourcePoint" />
            <mxPoint x="-480" y="560" as="targetPoint" />
          </mxGeometry>
        </mxCell>
        <mxCell id="1oiTnXrNYfTl7XvEbWrJ-8" value="User" style="text;html=1;align=center;verticalAlign=middle;resizable=0;points=[];autosize=1;strokeColor=none;fillColor=none;" vertex="1" parent="1">
          <mxGeometry x="-650" y="570" width="50" height="30" as="geometry" />
        </mxCell>
        <mxCell id="1oiTnXrNYfTl7XvEbWrJ-9" value="Backend" style="text;html=1;align=center;verticalAlign=middle;resizable=0;points=[];autosize=1;strokeColor=none;fillColor=none;" vertex="1" parent="1">
          <mxGeometry x="-365" y="570" width="70" height="30" as="geometry" />
        </mxCell>
        <mxCell id="1oiTnXrNYfTl7XvEbWrJ-10" value="" style="ellipse;html=1;shape=startState;fillColor=#000000;strokeColor=#ff0000;" vertex="1" parent="1">
          <mxGeometry x="-650" y="620" width="30" height="30" as="geometry" />
        </mxCell>
        <mxCell id="1oiTnXrNYfTl7XvEbWrJ-12" value="1. Truy cập hệ thống gửi đi yêu cầu" style="rounded=1;whiteSpace=wrap;html=1;" vertex="1" parent="1">
          <mxGeometry x="-720" y="710" width="190" height="30" as="geometry" />
        </mxCell>
        <mxCell id="1oiTnXrNYfTl7XvEbWrJ-13" value="" style="endArrow=classic;html=1;rounded=0;" edge="1" parent="1">
          <mxGeometry width="50" height="50" relative="1" as="geometry">
            <mxPoint x="-635.71" y="640" as="sourcePoint" />
            <mxPoint x="-635.71" y="710" as="targetPoint" />
          </mxGeometry>
        </mxCell>
        <mxCell id="1oiTnXrNYfTl7XvEbWrJ-14" value="" style="endArrow=classic;html=1;rounded=0;" edge="1" parent="1">
          <mxGeometry width="50" height="50" relative="1" as="geometry">
            <mxPoint x="-635.71" y="740" as="sourcePoint" />
            <mxPoint x="-635.71" y="820" as="targetPoint" />
          </mxGeometry>
        </mxCell>
        <mxCell id="1oiTnXrNYfTl7XvEbWrJ-15" value="2. MainAgent bắt đầu tiếp nhận" style="rounded=1;whiteSpace=wrap;html=1;" vertex="1" parent="1">
          <mxGeometry x="-710" y="820" width="180" height="50" as="geometry" />
        </mxCell>
        <mxCell id="1oiTnXrNYfTl7XvEbWrJ-16" value="" style="endArrow=classic;html=1;rounded=0;" edge="1" parent="1">
          <mxGeometry width="50" height="50" relative="1" as="geometry">
            <mxPoint x="-530" y="840" as="sourcePoint" />
            <mxPoint x="-400" y="840" as="targetPoint" />
          </mxGeometry>
        </mxCell>
        <mxCell id="1oiTnXrNYfTl7XvEbWrJ-17" value="3.Xử lý quyết định&amp;nbsp;" style="rounded=1;whiteSpace=wrap;html=1;" vertex="1" parent="1">
          <mxGeometry x="-400" y="790" width="140" height="60" as="geometry" />
        </mxCell>
        <mxCell id="1oiTnXrNYfTl7XvEbWrJ-18" value="" style="endArrow=classic;html=1;rounded=0;" edge="1" parent="1">
          <mxGeometry width="50" height="50" relative="1" as="geometry">
            <mxPoint x="-330" y="850" as="sourcePoint" />
            <mxPoint x="-330" y="900" as="targetPoint" />
          </mxGeometry>
        </mxCell>
        <mxCell id="1oiTnXrNYfTl7XvEbWrJ-19" value="4. 6 Agents cùng nhau phân tích" style="rounded=1;whiteSpace=wrap;html=1;" vertex="1" parent="1">
          <mxGeometry x="-400" y="900" width="150" height="50" as="geometry" />
        </mxCell>
        <mxCell id="1oiTnXrNYfTl7XvEbWrJ-20" value="" style="endArrow=classic;html=1;rounded=0;exitX=0.5;exitY=1;exitDx=0;exitDy=0;entryX=0.556;entryY=-0.044;entryDx=0;entryDy=0;entryPerimeter=0;" edge="1" parent="1" source="1oiTnXrNYfTl7XvEbWrJ-19" target="1oiTnXrNYfTl7XvEbWrJ-23">
          <mxGeometry width="50" height="50" relative="1" as="geometry">
            <mxPoint x="-330.24" y="940" as="sourcePoint" />
            <mxPoint x="-330.24" y="980" as="targetPoint" />
          </mxGeometry>
        </mxCell>
        <mxCell id="1oiTnXrNYfTl7XvEbWrJ-21" value="" style="ellipse;html=1;shape=startState;fillColor=#000000;strokeColor=#ff0000;" vertex="1" parent="1">
          <mxGeometry x="-345" y="1050" width="30" height="30" as="geometry" />
        </mxCell>
        <mxCell id="1oiTnXrNYfTl7XvEbWrJ-22" value="" style="endArrow=none;html=1;rounded=0;" edge="1" parent="1">
          <mxGeometry width="50" height="50" relative="1" as="geometry">
            <mxPoint x="-760" y="1120" as="sourcePoint" />
            <mxPoint x="-200" y="1120" as="targetPoint" />
          </mxGeometry>
        </mxCell>
        <mxCell id="1oiTnXrNYfTl7XvEbWrJ-23" value="5. Gemini AI đưa ra lời khuyên" style="rounded=1;whiteSpace=wrap;html=1;" vertex="1" parent="1">
          <mxGeometry x="-390" y="980" width="120" height="30" as="geometry" />
        </mxCell>
        <mxCell id="1oiTnXrNYfTl7XvEbWrJ-24" value="" style="endArrow=classic;html=1;rounded=0;exitX=0.5;exitY=1;exitDx=0;exitDy=0;" edge="1" parent="1" source="1oiTnXrNYfTl7XvEbWrJ-23">
          <mxGeometry width="50" height="50" relative="1" as="geometry">
            <mxPoint x="-320" y="1050" as="sourcePoint" />
            <mxPoint x="-330" y="1050" as="targetPoint" />
          </mxGeometry>
        </mxCell>
      </root>
    </mxGraphModel>
  </diagram>
</mxfile>
